# Blender v2.93.0 OBJ File: 'GrassPlatform.blend'
# www.blender.org
mtllib GrassPlatform.mtl
o GrassPlatform_Cylinder.001
v 0.000000 0.195196 -0.324629
v 0.253805 0.201350 -0.202403
v 0.316490 0.194761 0.072237
v 0.140851 0.201350 0.292481
v -0.140851 0.201350 0.292481
v -0.316490 0.201350 0.072237
v -0.253805 0.201350 -0.202403
v 0.000000 0.027546 -0.209435
v 0.000000 0.109653 -0.324629
v 0.163743 0.027546 -0.130581
v 0.253805 0.132355 -0.202403
v 0.204184 0.027546 0.046604
v 0.316490 0.109653 0.072237
v 0.090871 0.027546 0.188695
v 0.140851 0.118553 0.292481
v -0.090871 0.027546 0.188695
v -0.140851 0.140412 0.292481
v -0.204184 0.027546 0.046604
v -0.316490 0.109653 0.072237
v -0.163743 0.027546 -0.130581
v -0.253805 0.115326 -0.202403
v 0.241969 0.218077 -0.202403
v 0.000000 0.218077 -0.309538
v 0.307889 0.218077 0.072237
v 0.140851 0.218077 0.292481
v -0.140851 0.218077 0.292481
v -0.305470 0.218077 0.072237
v -0.253805 0.218077 -0.202403
vt 0.142857 0.736205
vt 0.142857 1.000000
vt 0.000000 1.000000
vt 0.000000 0.736205
vt 0.714286 0.736205
vt 0.714286 1.000000
vt 0.571429 1.000000
vt 0.571429 0.736205
vt 0.428571 1.000000
vt 0.428571 0.736205
vt 0.285714 1.000000
vt 0.285714 0.736205
vt 0.857143 0.736205
vt 0.857143 1.000000
vt 1.000000 0.736205
vt 1.000000 1.000000
vt 0.882489 0.500000
vt 0.974654 0.500000
vt 0.739632 0.500000
vt 0.831797 0.500000
vt 0.596775 0.500000
vt 0.688939 0.500000
vt 0.453918 0.500000
vt 0.546082 0.500000
vt 0.311061 0.500000
vt 0.403225 0.500000
vt 0.168203 0.500000
vt 0.260368 0.500000
vt 0.025346 0.500000
vt 0.117511 0.500000
vt 0.750000 0.404837
vt 0.871056 0.346539
vt 0.900954 0.215546
vt 0.817181 0.110497
vt 0.682819 0.110497
vt 0.599046 0.215546
vt 0.628944 0.346539
vt 0.142857 1.000000
vt 0.000000 1.000000
vt 0.437640 0.399638
vt 0.250000 0.490000
vt 0.062360 0.399638
vt 0.016017 0.196595
vt 0.145868 0.033767
vt 0.354132 0.033767
vt 0.483983 0.196595
vt 0.428571 1.000000
vt 0.285714 1.000000
vt 0.714286 1.000000
vt 0.571429 1.000000
vt 1.000000 1.000000
vt 0.857143 1.000000
vn -0.4339 0.0000 -0.9010
vn 0.7818 0.0000 0.6235
vn -0.0000 0.0000 1.0000
vn -0.7818 0.0000 0.6235
vn -0.9749 0.0000 -0.2225
vn 0.9749 0.0000 -0.2225
vn 0.4339 0.0000 -0.9010
vn 0.3229 -0.7426 -0.5867
vn 0.6439 -0.7426 -0.1843
vn 0.4915 -0.7679 0.4108
vn -0.0336 -0.7130 0.7003
vn -0.5045 -0.7280 0.4641
vn -0.6153 -0.7738 -0.1502
vn -0.2833 -0.7738 -0.5665
vn 0.0000 -1.0000 -0.0000
vn -0.3856 0.3285 -0.8622
vn 0.0000 1.0000 -0.0000
vn -0.7658 0.2523 0.5915
vn 0.7794 0.1674 0.6038
vn 0.3755 0.4259 -0.8232
vn -0.9318 0.3069 -0.1940
vn 0.8729 0.4455 -0.1990
usemtl Dirt
s off
f 21/1/1 7/2/1 1/3/1 9/4/1
f 13/5/2 3/6/2 4/7/2 15/8/2
f 15/8/3 4/7/3 5/9/3 17/10/3
f 17/10/4 5/9/4 6/11/4 19/12/4
f 19/12/5 6/11/5 7/2/5 21/1/5
f 11/13/6 2/14/6 3/6/6 13/5/6
f 9/15/7 1/16/7 2/14/7 11/13/7
f 9/15/8 11/13/8 10/17/8 8/18/8
f 11/13/9 13/5/9 12/19/9 10/20/9
f 13/5/10 15/8/10 14/21/10 12/22/10
f 15/8/11 17/10/11 16/23/11 14/24/11
f 17/10/12 19/12/12 18/25/12 16/26/12
f 19/12/13 21/1/13 20/27/13 18/28/13
f 21/1/14 9/4/14 8/29/14 20/30/14
f 8/31/15 10/32/15 12/33/15 14/34/15 16/35/15 18/36/15 20/37/15
usemtl Grass
f 1/3/16 7/2/16 28/38/16 23/39/16
f 22/40/17 23/41/17 28/42/17 27/43/17 26/44/17 25/45/17 24/46/17
f 6/11/18 5/9/18 26/47/18 27/48/18
f 4/7/19 3/6/19 24/49/19 25/50/19
f 2/14/20 1/16/20 23/51/20 22/52/20
f 7/2/21 6/11/21 27/48/21 28/38/21
f 5/9/3 4/7/3 25/50/3 26/47/3
f 3/6/22 2/14/22 22/52/22 24/49/22
